<?xml version="1.0" encoding="iso-8859-1"?>
<!-- Generator: Adobe Illustrator 19.0.0, SVG Export Plug-In . SVG Version: 6.00 Build 0)  -->
<svg version="1.1" id="Capa_1" xmlns="http://www.w3.org/2000/svg" xmlns:xlink="http://www.w3.org/1999/xlink" x="0px" y="0px"
	 viewBox="0 0 512.002 512.002" style="enable-background:new 0 0 512.002 512.002;" xml:space="preserve">
<polygon style="fill:#8FDBFD;" points="251.099,172.5 271.099,494.5 301.099,494.5 321.099,172.5 "/>
<path style="fill:#186DD7;" d="M231.099,172.5c-10.295,0-18.766,7.781-19.87,17.782L177.501,494.5h93.598v-322H231.099z"/>
<path style="fill:#1653CA;" d="M360.97,190.282c-1.105-10.001-9.575-17.782-19.87-17.782h-30l53.402,322h30L360.97,190.282z"/>
<path style="fill:#186DD7;" d="M311.099,172.5h-10v322h63.402L330.97,190.282C329.865,180.281,321.394,172.5,311.099,172.5z"/>
<path style="fill:#C8C8C8;" d="M300.871,97.5l-15,135c24.853,0,45-20.147,45-45v-90H300.871z"/>
<path style="fill:#FFFFFF;" d="M240.871,97.5v90c0,24.853,20.147,45,45,45c8.284,0,15-20.147,15-45v-90H240.871z"/>
<path style="fill:#FDA181;" d="M286.129,52.5v90c24.853,0,45-20.147,45-45l-0.258-15L286.129,52.5z"/>
<path style="fill:#FDC0AB;" d="M286.129,52.5l-45.258,30l0.258,15c0,24.853,20.147,45,45,45c8.284,0,15-20.147,15-45
	S294.413,52.5,286.129,52.5z"/>
<polygon style="fill:#186DD7;" points="285.871,7.5 285.871,59.398 301.099,82.5 331.099,82.5 "/>
<polygon style="fill:#1A93EA;" points="241.099,82.5 301.099,82.5 285.871,7.5 "/>
<path style="fill:#8FDBFD;" d="M162.501,27.5l-15-20l-15,20l-7.5,38.565c0,12.427,10.074,22.5,22.5,22.5s22.5-10.073,22.5-22.5
	L162.501,27.5z"/>
<path d="M401.956,493.679l-33.532-304.22C366.884,175.515,355.137,165,341.099,165h-2.728v-62.32
	c0.168-1.705,0.258-3.432,0.258-5.18c0-0.666-0.095-1.307-0.258-1.922V90h22.728c4.142,0,7.5-3.357,7.5-7.5
	c0-4.143-3.358-7.5-7.5-7.5h-25.765l-43.04-71.373C290.936,1.376,288.499,0,285.871,0c-2.651,0.006-5.089,1.394-6.44,3.655
	L236.841,75h-25.742c-4.142,0-7.5,3.357-7.5,7.5c0,4.143,3.358,7.5,7.5,7.5h22.272v75h-2.272c-12.496,0-23.17,8.335-26.452,20
	h-49.646V95.115c12.925-3.339,22.5-15.098,22.5-29.051c0-0.48-0.046-0.96-0.138-1.432l-7.5-38.564
	c-0.216-1.112-0.682-2.162-1.362-3.068l-15-20c-1.417-1.889-3.639-3-6-3s-4.583,1.111-6,3l-15,20
	c-0.68,0.906-1.146,1.956-1.362,3.068l-7.5,38.564c-0.092,0.472-0.138,0.951-0.138,1.432c0,13.953,9.575,25.712,22.5,29.051V185
	h-7.5c-12.407,0-22.5,10.094-22.5,22.5s10.093,22.5,22.5,22.5h7.5v274.5c0,4.143,3.358,7.5,7.5,7.5s7.5-3.357,7.5-7.5V200h47.604
	l-32.559,293.674c-0.235,2.12,0.444,4.239,1.867,5.829c1.423,1.589,3.455,2.497,5.588,2.497h41.534
	c-0.539,1.521-0.601,3.223-0.051,4.872c1.048,3.143,3.974,5.13,7.114,5.13c0.786,0,1.586-0.125,2.373-0.387L257.316,502h57.565
	l28.846,9.615c0.787,0.262,1.586,0.387,2.373,0.387c3.14,0,6.066-1.987,7.114-5.13c0.549-1.649,0.488-3.352-0.051-4.872h41.338
	c2.132,0,4.164-0.907,5.586-2.496C401.51,497.916,402.19,495.798,401.956,493.679z M132.515,66.715l7.019-36.093L147.501,20
	l7.967,10.622l7.019,36.093c-0.342,7.971-6.933,14.35-14.986,14.35S132.857,74.686,132.515,66.715z M140.001,215h-7.5
	c-4.136,0-7.5-3.364-7.5-7.5s3.364-7.5,7.5-7.5h7.5V215z M323.371,187.5c0,20.678-16.822,37.5-37.5,37.5s-37.5-16.822-37.5-37.5
	v-53.578c9.554,9.901,22.944,16.078,37.758,16.078c14.545,0,27.725-5.949,37.242-15.538V187.5z M323.371,101.83
	c-2.154,18.645-18.029,33.17-37.242,33.17c-20.678,0-37.5-16.822-37.5-37.5c0-0.666-0.095-1.307-0.258-1.922V90h75V101.83z
	 M285.904,22.077L317.818,75h-63.507L285.904,22.077z M218.44,193.296c0.002-0.017,0.004-0.033,0.005-0.05l0.237-2.141
	c0.7-6.331,6.037-11.105,12.416-11.105h2.272v7.5c0,28.948,23.551,52.5,52.5,52.5c2.625,0,5.205-0.199,7.728-0.573V487h-15V260.006
	c0-4.143-3.358-7.5-7.5-7.5s-7.5,3.357-7.5,7.5V487h-7.618c-0.044,0-70.102,0-70.102,0L218.44,193.296z M308.599,487V234.821
	c17.599-8.487,29.772-26.509,29.772-47.321V180h2.728c6.379,0,11.716,4.774,12.415,11.104L386.129,487H308.599z"/>
<g>
</g>
<g>
</g>
<g>
</g>
<g>
</g>
<g>
</g>
<g>
</g>
<g>
</g>
<g>
</g>
<g>
</g>
<g>
</g>
<g>
</g>
<g>
</g>
<g>
</g>
<g>
</g>
<g>
</g>
</svg>
