<?xml version="1.0" encoding="iso-8859-1"?>
<!-- Generator: Adobe Illustrator 19.0.0, SVG Export Plug-In . SVG Version: 6.00 Build 0)  -->
<svg version="1.1" id="Capa_1" xmlns="http://www.w3.org/2000/svg" xmlns:xlink="http://www.w3.org/1999/xlink" x="0px" y="0px"
	 viewBox="0 0 512.002 512.002" style="enable-background:new 0 0 512.002 512.002;" xml:space="preserve">
<polygon style="fill:#632B21;" points="357.745,309.499 257.745,309.499 277.745,459.499 337.745,459.499 "/>
<path style="fill:#0045CC;" d="M307.745,262.5v75c24.853,0,45-20.147,45-45L307.745,262.5z"/>
<path style="fill:#1CB9FD;" d="M322.745,292.5l-15-30l-45,30c0,24.853,20.147,45,45,45C316.029,337.5,322.745,317.352,322.745,292.5
	z"/>
<path style="fill:#629D3C;" d="M332.745,172.5h-30l20,120h30v-100C352.745,181.454,343.791,172.5,332.745,172.5z"/>
<path style="fill:#8DC051;" d="M302.745,172.5h-20c-11.046,0-20,8.954-20,20v100h60v-100
	C322.745,181.454,313.791,172.5,302.745,172.5z"/>
<path style="fill:#FDC0AB;" d="M307.745,52.5v101l45-46v-10C352.745,72.647,332.598,52.5,307.745,52.5z"/>
<path style="fill:#FDDFD3;" d="M307.745,52.5c-24.853,0-45,20.147-45,45v10l60,46v-56C322.745,72.647,316.029,52.5,307.745,52.5z"/>
<path style="fill:#E34339;" d="M326.454,107.5c-1.053-1.573-2.303-3.002-3.709-4.261l-15,69.261c24.853,0,45-20.147,45-45v-20
	H326.454z"/>
<path style="fill:#F06449;" d="M322.745,127.5v-24.261c-3.981-3.566-9.235-5.739-15-5.739c-7.801,0-14.672,3.971-18.709,10h-26.291
	v20c0,24.853,20.147,45,45,45C316.029,172.5,322.745,152.352,322.745,127.5z"/>
<polygon style="fill:#8FDBFD;" points="129.712,7.499 144.712,22.499 144.712,172.499 114.712,172.499 114.712,22.499 "/>
<path style="fill:#84473C;" d="M292.745,172.499h-40c-10.295,0-18.766,7.781-19.87,17.782l-30.13,269.218h90V172.499z"/>
<path style="fill:#743225;" d="M382.615,190.282c-1.105-10.001-9.575-17.782-19.87-17.782h-30l49.544,287h30L382.615,190.282z"/>
<path style="fill:#84473C;" d="M352.615,190.282c-1.105-10.001-9.575-17.782-19.87-17.782h-10v287h59.544L352.615,190.282z"/>
<path d="M419.744,458.678l-29.674-269.22C388.53,175.514,376.783,165,362.745,165h-18.308c9.745-9.537,15.808-22.821,15.808-37.5
	v-16.893l17.803-17.803c2.929-2.93,2.929-7.678,0-10.607c-2.929-2.928-7.678-2.928-10.606,0l-7.748,7.748
	C356.019,64.564,334.128,45,307.745,45s-48.274,19.564-51.949,44.945l-7.748-7.748c-2.929-2.928-7.678-2.928-10.606,0
	c-2.929,2.93-2.929,7.678,0,10.607l17.803,17.803V127.5c0,14.679,6.063,27.963,15.808,37.5h-18.308
	c-14.038,0-25.785,10.515-27.324,24.448l-2.097,18.736c-29.953,9.858-63.011,2.659-86.112-18.871V180h22.5
	c4.142,0,7.5-3.357,7.5-7.5s-3.358-7.5-7.5-7.5h-37.5V25.606l7.5-7.5l7.5,7.5V142.5c0,4.143,3.358,7.5,7.5,7.5s7.5-3.357,7.5-7.5
	v-120c0-1.989-0.79-3.896-2.197-5.304l-15-15c-2.929-2.928-7.678-2.928-10.606,0l-15,15c-1.407,1.407-2.197,3.314-2.197,5.304V165
	h-7.5c-4.142,0-7.5,3.357-7.5,7.5s3.358,7.5,7.5,7.5h22.5v52.5c0,4.143,3.358,7.5,7.5,7.5c4.142,0,7.5-3.357,7.5-7.5v-23.862
	c17.345,12.381,38.047,18.899,59.059,18.899c8.433,0,16.914-1.077,25.248-3.218l-26.227,234.347
	c-0.237,2.121,0.44,4.243,1.863,5.834s3.456,2.5,5.59,2.5h67.5v22.095l-24.872,8.29c-3.93,1.31-6.053,5.558-4.744,9.487
	c1.048,3.143,3.974,5.13,7.114,5.13c0.786,0,1.586-0.125,2.373-0.387l30-10c3.063-1.021,5.128-3.887,5.128-7.115V467h45v27.5
	c0,3.229,2.066,6.095,5.128,7.115l30,10c0.787,0.262,1.586,0.387,2.373,0.387c3.14,0,6.066-1.987,7.114-5.13
	c1.31-3.93-0.814-8.178-4.744-9.487l-24.872-8.29V467h67.044c2.132,0,4.164-0.907,5.586-2.496
	C419.298,462.916,419.978,460.797,419.744,458.678z M315.245,329.231c-4.939,1.002-10.061,1.002-15,0V300h15V329.231z
	 M300.245,344.452c2.476,0.357,4.979,0.547,7.5,0.547s5.024-0.19,7.5-0.547V452h-15V344.452z M315.245,285h-15V180h15V285z
	 M307.745,60c20.678,0,37.5,16.822,37.5,37.5v2.5h-15.139c-5.653-6.325-13.746-10-22.361-10s-16.708,3.675-22.361,10h-15.139v-2.5
	C270.245,76.822,287.068,60,307.745,60z M270.245,127.5V115h18.791c2.502,0,4.84-1.248,6.232-3.327
	c2.797-4.179,7.461-6.673,12.477-6.673s9.679,2.494,12.476,6.673c1.393,2.079,3.73,3.327,6.232,3.327h18.792v12.5
	c0,20.678-16.822,37.5-37.5,37.5S270.245,148.177,270.245,127.5z M237.695,214.64c0.003-0.026,2.634-23.535,2.634-23.535
	c0.699-6.331,6.037-11.105,12.416-11.105h32.5v272h-74.114L237.695,214.64z M330.245,452V180h32.5
	c6.379,0,11.716,4.774,12.416,11.104L403.917,452H330.245z"/>
<g>
</g>
<g>
</g>
<g>
</g>
<g>
</g>
<g>
</g>
<g>
</g>
<g>
</g>
<g>
</g>
<g>
</g>
<g>
</g>
<g>
</g>
<g>
</g>
<g>
</g>
<g>
</g>
<g>
</g>
</svg>
